PathFileType	3	(X/Y/Z)	D:\Vicon Database\Healthy Subjects\S0040\Jan. 30, 2020\Static Calibration.trc
DataRate	CameraRate	NumFrames	NumMarkers	Units	OrigDataRate	OrigDataStartFrame	OrigNumFrames
100.0	100.0	4	69	mm	100.0	38	300	
Frame#	Time	sternum_cluster1			sternum_cluster2			sternum_cluster3			left_asis			right_asis			left_psis			right_psis			sacrum_cluster1			sacrum_cluster2			sacrum_cluster3			left_lat_femoral_epicondyle			left_med_femoral_epicondyle			left_anterior_thigh15			left_anterior_thigh25			left_anterior_thigh50			left_lateral_thigh25			left_lateral_thigh50			left_trochanter			left_thigh_cluster1			left_thigh_cluster2			left_thigh_cluster3			left_lateral_tibial_condyle			left_medial_tibial_condyle			left_fibular_head			left_tibial_tuberosity			left_anterior_shank30			left_lateral_malleolus			left_medial_malleolus			left_shank_cluster1			left_shank_cluster2			left_shank_cluster3			left_heel			left_metatarsal2			left_metatarsal5			left_metatarsal1			left_toe_tip			left_foot_cluster1			left_foot_cluster2			left_foot_cluster3			right_lat_femoral_epicondyle			right_med_femoral_epicondyle			right_anterior_thigh15			right_anterior_thigh25			right_anterior_thigh50			right_lateral_thigh25			right_lateral_thigh50			right_trochanter			right_thigh_cluster1			right_thigh_cluster2			right_thigh_cluster3			right_lateral_tibial_condyle			right_medial_tibial_condyle			right_fibular_head			right_tibial_tuberosity			right_lateral_distal_shank			right_anterior_shank30			right_lateral_malleolus			right_medial_malleolus			right_shank_cluster1			right_shank_cluster2			right_shank_cluster3			right_heel			right_metatarsal2			right_metatarsal5			right_metatarsal1			right_toe_tip			right_foot_cluster1			right_foot_cluster2			right_foot_cluster3			
		X1	Y1	Z1	X2	Y2	Z2	X3	Y3	Z3	X4	Y4	Z4	X5	Y5	Z5	X6	Y6	Z6	X7	Y7	Z7	X8	Y8	Z8	X9	Y9	Z9	X10	Y10	Z10	X11	Y11	Z11	X12	Y12	Z12	X13	Y13	Z13	X14	Y14	Z14	X15	Y15	Z15	X16	Y16	Z16	X17	Y17	Z17	X18	Y18	Z18	X19	Y19	Z19	X20	Y20	Z20	X21	Y21	Z21	X22	Y22	Z22	X23	Y23	Z23	X24	Y24	Z24	X25	Y25	Z25	X26	Y26	Z26	X27	Y27	Z27	X28	Y28	Z28	X29	Y29	Z29	X30	Y30	Z30	X31	Y31	Z31	X32	Y32	Z32	X33	Y33	Z33	X34	Y34	Z34	X35	Y35	Z35	X36	Y36	Z36	X37	Y37	Z37	X38	Y38	Z38	X39	Y39	Z39	X40	Y40	Z40	X41	Y41	Z41	X42	Y42	Z42	X43	Y43	Z43	X44	Y44	Z44	X45	Y45	Z45	X46	Y46	Z46	X47	Y47	Z47	X48	Y48	Z48	X49	Y49	Z49	X50	Y50	Z50	X51	Y51	Z51	X52	Y52	Z52	X53	Y53	Z53	X54	Y54	Z54	X55	Y55	Z55	X56	Y56	Z56	X57	Y57	Z57	X58	Y58	Z58	X59	Y59	Z59	X60	Y60	Z60	X61	Y61	Z61	X62	Y62	Z62	X63	Y63	Z63	X64	Y64	Z64	X65	Y65	Z65	X66	Y66	Z66	X67	Y67	Z67	X68	Y68	Z68	X69	Y69	Z69	
38	0.37	775.02472	1473.5588	-225.95131	761.55389	1446.2687	-218.48016	764.67712	1449.7023	-256.26273	750.39368	1077.2252	-119.97473	756.58801	1085.8325	-367.95139	917.08191	1090.9894	-165.98138	922.25897	1096.5299	-282.80859	933.31573	1144.3496	-227.77238	938.60913	1119.3923	-240.40341	939.72894	1112.2505	-201.4986	872.64496	553.09906	-79.284767	860.03711	541.80005	-213.86246	765.54156	613.46918	-136.87985	732.91718	698.5365	-127.38895	717.74622	839.24359	-113.0004	844.97369	706.52521	-62.05751	815.34241	849.66718	-41.67485	814.7644	971.26874	-55.278255	820.51459	807.94434	-37.147831	827.37195	778.90631	-37.836803	789.70068	783.88208	-37.294292	878.9162	500.39792	-76.321411	872.01385	486.37943	-199.53629	879.67102	472.2973	-71.406586	822.2182	461.5979	-124.14949	821.05731	216.34964	-122.67406	858.72729	98.518509	-94.776039	841.54956	108.34325	-172.39908	816.03625	413.01385	-147.94357	809.62433	386.25024	-138.08426	821.48828	383.86227	-174.85199	926.63068	61.699615	-133.73474	708.72559	68.024292	-116.4016	735.18469	56.715199	-77.61586	713.44263	59.936417	-159.87009	657.23236	59.226761	-111.06582	771.90332	116.65981	-115.42111	747.646	102.30735	-103.62006	741.8009	107.09345	-141.37474	849.4679	538.82141	-385.17462	844.48425	539.56323	-250.75049	758.16205	614.69489	-326.78601	729.05914	696.46637	-323.7955	715.00751	829.33752	-336.04868	827.85132	698.4068	-408.95581	811.91718	844.16992	-435.61536	814.68994	973.90948	-425.29465	825.14209	793.39136	-439.9534	815.71332	766.29755	-436.06985	854.75543	768.05048	-432.81171	861.57776	499.69565	-384.37582	847.97443	484.70413	-265.2066	868.95984	473.07364	-388.36411	812.84924	460.18378	-344.9357	873.71698	203.35928	-386.05801	827.13074	217.11751	-341.42096	869.54468	98.450905	-374.25366	854.90082	107.83331	-293.78784	821.02893	397.89151	-291.50305	825.2262	369.43207	-285.30035	802.91418	369.25131	-314.99872	940.42834	62.267448	-340.40982	721.53998	68.633278	-341.91708	755.87982	55.57436	-392.04004	731.38934	51.322079	-300.5965	670.78168	56.001896	-351.59744	779.11865	115.5405	-337.22034	754.6037	101.73522	-329.53146	755.41785	106.83765	-366.70367
39	0.38	775.08044	1473.5685	-225.9935	761.59686	1446.2883	-218.51363	764.72516	1449.7097	-256.31055	750.41699	1077.2416	-119.94453	756.677	1085.8198	-367.91641	917.09241	1090.9546	-165.92198	922.30981	1096.5659	-282.70142	933.35315	1144.3361	-227.72989	938.62891	1119.3458	-240.32507	939.7323	1112.2037	-201.46719	872.61047	553.13025	-79.254868	859.94617	541.87384	-213.85034	765.505	613.47833	-136.85316	732.87683	698.54803	-127.34546	717.75275	839.26398	-112.95042	844.95673	706.52142	-62.004978	815.31348	849.70154	-41.609287	814.75751	971.31525	-55.235428	820.49243	807.97076	-37.109932	827.35815	778.92505	-37.799618	789.63391	783.96838	-37.231678	878.85156	500.41718	-76.294235	872.0105	486.39944	-199.522	879.62585	472.28415	-71.383781	822.16669	461.6015	-124.13747	821.01483	216.35872	-122.67966	858.70685	98.524796	-94.785774	841.53424	108.33937	-172.41457	816.1051	412.89636	-147.96951	809.56342	386.27917	-138.07967	821.45111	383.87268	-174.84807	926.61377	61.687878	-133.69797	708.7207	68.03437	-116.40643	735.14478	56.735977	-77.608421	713.46594	59.910854	-159.88409	657.26263	59.178524	-111.0774	771.87433	116.66115	-115.43665	747.60297	102.33402	-103.61887	741.79095	107.09583	-141.37637	849.04352	538.90167	-385.38821	844.42523	539.55188	-250.71782	758.10132	614.70959	-326.74893	729.0011	696.48236	-323.76065	714.9502	829.36438	-335.99509	827.78015	698.42065	-408.94781	812.00702	844.08539	-435.40732	814.69128	973.89539	-425.24362	825.09424	793.39203	-439.91763	815.789	765.79468	-435.99655	854.51898	767.66888	-432.91885	861.50299	499.6795	-384.36288	847.93231	484.69843	-265.18344	868.90967	473.06201	-388.34171	812.8255	460.16724	-344.94083	873.65344	203.3546	-386.09811	827.14386	217.09067	-341.44125	869.55457	98.45974	-374.22934	855.36707	107.30699	-294.33658	820.96698	397.90091	-291.47705	825.21088	369.39883	-285.28159	802.84271	369.27319	-314.99387	940.46448	62.325764	-340.36902	721.52356	68.64209	-341.93466	755.91406	55.545971	-392.06348	731.34686	51.342075	-300.58331	670.75897	56.015182	-351.60733	779.15649	115.51722	-337.28351	754.5744	101.75115	-329.52802	755.42627	106.84887	-366.71033
40	0.39	775.14093	1473.5927	-226.02225	761.66028	1446.291	-218.53427	764.80823	1449.7051	-256.34827	749.98346	1077.3779	-119.82468	756.71881	1085.8046	-367.90765	917.12378	1090.9406	-165.90334	923.52264	1097.1881	-283.01953	933.39484	1144.307	-227.70073	938.65192	1119.2932	-240.2099	939.77472	1112.2031	-201.43472	872.64813	553.09558	-79.240547	859.99524	541.82117	-213.8447	765.49231	613.48352	-136.82652	732.84851	698.56775	-127.30126	717.73065	839.29156	-112.91091	844.94446	706.53528	-61.968273	815.3335	849.69714	-41.562473	814.76495	971.33563	-55.213425	820.50171	807.96539	-37.081543	827.3609	778.95947	-37.783237	789.64514	783.96851	-37.199684	878.8222	500.40137	-76.281952	871.99164	486.39679	-199.47588	879.60126	472.27731	-71.365913	822.15503	461.59894	-124.1115	820.99347	216.3383	-122.6827	858.72375	98.50119	-94.789566	841.53943	108.34273	-172.40829	816.00372	412.96887	-147.9455	809.55695	386.26477	-138.07295	821.40137	383.88419	-174.8187	926.62561	61.654194	-133.69374	708.74054	67.997696	-116.42508	735.16852	56.70602	-77.601875	713.46332	59.901001	-159.89989	657.2677	59.174709	-111.05521	771.90649	116.65717	-115.41414	747.6059	102.29346	-103.65966	741.79285	107.09361	-141.38669	849.21606	538.86475	-385.11279	844.37726	539.53394	-250.71165	758.06915	614.70667	-326.71683	728.95599	696.50067	-323.69162	714.95026	829.38214	-335.96695	827.85724	698.39777	-408.90503	811.9574	844.09436	-435.37842	814.6864	973.87427	-425.21695	825.09393	793.35992	-439.85971	815.73071	766.26538	-435.98004	853.9375	767.50446	-432.35547	861.51581	499.63715	-384.33945	847.87207	484.69406	-265.15359	868.91272	473.05469	-388.31195	812.81372	460.13837	-344.92313	873.6488	203.33717	-386.10007	827.17255	217.06331	-341.45053	869.60291	98.433868	-374.20941	855.47504	107.24922	-294.4046	820.9397	397.90585	-291.466	825.11578	369.43616	-285.25757	802.84833	369.23123	-314.99484	940.48181	62.297001	-340.37274	721.54517	68.60463	-341.95123	755.94861	55.532436	-392.07751	731.32239	51.34811	-300.56583	670.77502	55.997429	-351.66455	779.12524	115.52873	-337.23831	754.62921	101.69927	-329.5358	755.53467	106.73831	-366.7135
41	0.4	775.16699	1473.6062	-226.02184	761.72266	1446.3051	-218.55479	764.86011	1449.7269	-256.36197	749.79181	1077.446	-119.75367	756.74695	1085.8328	-367.86447	917.1554	1090.9437	-165.87056	923.57819	1097.2157	-283.09155	933.39905	1144.292	-227.73062	938.69788	1119.3311	-240.3053	939.79285	1112.1122	-201.44826	872.64056	553.0744	-79.235451	860.02399	541.79669	-213.78487	765.46503	613.5152	-136.77919	732.85547	698.59424	-127.25045	717.72736	839.32562	-112.8597	844.94476	706.55188	-61.947227	815.34656	849.72565	-41.527561	814.80151	971.34271	-55.161015	820.4939	807.9801	-37.015476	827.37616	778.92474	-37.727741	789.66718	783.96631	-37.156986	878.80371	500.42004	-76.235573	871.93909	486.41409	-199.42833	879.56476	472.27802	-71.320816	822.10773	461.60638	-124.10023	821.00653	216.34288	-122.67722	858.7309	98.516365	-94.783569	841.54163	108.33819	-172.424	816.09973	412.9126	-147.94244	809.53009	386.26971	-138.03842	821.39331	383.88626	-174.81592	926.63947	61.631855	-133.77412	708.73297	68.024178	-116.42122	735.20844	56.676579	-77.628059	713.48285	59.896881	-159.89452	657.28699	59.182621	-111.064	771.88922	116.65144	-115.44099	747.62085	102.3258	-103.61053	741.77362	107.11797	-141.3618	849.20544	538.86993	-385.08554	844.33594	539.53241	-250.66989	758.04028	614.7381	-326.67282	728.93744	696.52203	-323.64334	714.97498	829.39685	-335.9205	827.83582	698.39783	-408.88379	811.96625	844.08765	-435.35089	814.69971	973.89551	-425.19086	825.0827	793.34778	-439.81216	815.66357	766.26727	-435.95627	853.81726	767.41644	-432.2854	861.47742	499.69092	-384.31299	847.8385	484.69305	-265.12592	868.88025	473.06299	-388.2832	812.75647	460.17242	-344.87665	873.67407	203.36197	-386.08298	827.14532	217.07614	-341.4136	869.59534	98.448128	-374.22058	855.44214	107.25944	-294.38809	820.91583	397.89145	-291.45172	825.16827	369.38297	-285.24808	802.79303	369.24637	-314.93823	940.45374	62.247086	-340.4201	721.55042	68.62352	-341.94339	755.93628	55.527473	-392.07761	731.3573	51.329231	-300.57465	670.78625	55.987358	-351.6749	779.08148	115.53891	-337.20959	754.61035	101.72211	-329.53333	755.50629	106.7574	-366.68451
